Coordinates
version=1
nRows=4
nColumns=63
inDegrees=yes

Units are S.I. units (second, meters, Newtons, ...)
If the header above contains a line with 'inDegrees', this indicates whether rotational values are in degrees (yes) or radians (no).

endheader
time	pelvis_tilt	pelvis_list	pelvis_rotation	pelvis_tx	pelvis_ty	pelvis_tz	hip_flexion_r	hip_adduction_r	hip_rotation_r	knee_angle_r	knee_angle_r_beta	ankle_angle_r	subtalar_angle_r	mtp_angle_r	hip_flexion_l	hip_adduction_l	hip_rotation_l	knee_angle_l	knee_angle_l_beta	ankle_angle_l	subtalar_angle_l	mtp_angle_l	L5_S1_Flex_Ext	L5_S1_Lat_Bending	L5_S1_axial_rotation	L4_L5_Flex_Ext	L4_L5_Lat_Bending	L4_L5_axial_rotation	L3_L4_Flex_Ext	L3_L4_Lat_Bending	L3_L4_axial_rotation	L2_L3_Flex_Ext	L2_L3_Lat_Bending	L2_L3_axial_rotation	L1_L2_Flex_Ext	L1_L2_Lat_Bending	L1_L2_axial_rotation	L1_T12_Flex_Ext	L1_T12_Lat_Bending	L1_T12_axial_rotation	Abs_r3	Abs_r2	Abs_r1	Abs_t1	Abs_t2	neck_flexion	neck_bending	neck_rotation	arm_flex_r	arm_add_r	arm_rot_r	elbow_flex_r	pro_sup_r	wrist_flex_r	wrist_dev_r	arm_flex_l	arm_add_l	arm_rot_l	elbow_flex_l	pro_sup_l	wrist_flex_l	wrist_dev_l
     12.01700000	    -51.95285329	      0.90376287	      5.67682629	     -0.34412810	      0.98163048	      0.03184599	     98.31507682	    -11.30158720	     -2.68695722	     52.10067522	      0.90932833	     -7.26003439	     -1.73444198	      0.00000000	    116.11415302	     -5.06755002	      0.67990115	    112.43533045	      1.96236671	      1.14306229	      3.62024236	      0.00000000	     -0.09040202	     -0.39378097	     -0.88370644	     -0.16788559	     -0.52372869	     -0.93893809	     -0.14852148	     -0.95743905	     -0.93893809	     -0.10332047	     -0.95743905	     -0.77324314	     -0.08394731	     -0.80299815	     -0.71801148	     -0.05165571	     -0.60996672	     -0.66277983	     -0.64573258	     -4.45452908	     -4.91491011	      0.00000000	      0.00000000	      0.00000000	      0.00000000	      0.00000000	     66.17714445	     -8.26870202	     -3.29650177	     41.13079461	     53.51232634	      0.00000000	      5.00000014	     70.83853472	     -8.67156338	      5.54730771	     39.49313475	     58.71734814	      0.00000000	      5.00000014
     12.02500000	    -51.88832762	      1.74077329	      5.33754490	     -0.34343655	      0.98091712	      0.03260970	     96.26205715	    -10.92445296	     -2.47189985	     49.87740400	      0.87052492	     -8.10135618	     -1.36602503	      0.00000000	    117.94199673	     -5.93773097	     -0.20445887	    114.29274720	      1.99478475	      2.81631648	      2.86723346	      0.00000000	     -0.09048253	     -0.52372563	     -0.79574482	     -0.16803511	     -0.69655508	     -0.84547888	     -0.14865375	     -1.27338649	     -0.84547888	     -0.10341248	     -1.27338649	     -0.69627672	     -0.08402208	     -1.06798130	     -0.64654267	     -0.05170172	     -0.81125100	     -0.59680862	     -0.64630767	     -5.92448903	     -4.42569399	      0.00000000	      0.00000000	      0.00000000	      0.00000000	      0.00000000	     65.63691710	     -8.23306539	     -4.08501028	     41.45263556	     53.38760578	      0.00000000	      5.00000014	     70.96538335	     -8.80246504	      6.43866668	     39.74531320	     58.81128688	      0.00000000	      5.00000014
     12.03300000	    -51.89324716	      2.49378189	      5.58606037	     -0.34301319	      0.98075324	      0.03231411	     94.32486853	    -11.24528733	     -2.44254103	     47.91077573	      0.83620078	     -8.59098103	     -1.23558784	      0.00000000	    119.78237396	     -6.20602338	     -1.23742833	    115.49592291	      2.01578413	      3.64651996	      2.62721649	      0.00000000	     -0.09040216	     -0.63888828	     -0.82881674	     -0.16788584	     -0.84972141	     -0.88061779	     -0.14852170	     -1.55339297	     -0.88061779	     -0.10332062	     -1.55339297	     -0.72521465	     -0.08394744	     -1.30282098	     -0.67341360	     -0.05165579	     -0.98963795	     -0.62161256	     -0.64573356	     -7.22723202	     -4.60963006	      0.00000000	      0.00000000	      0.00000000	      0.00000000	      0.00000000	     65.27695902	     -8.24080465	     -4.37839572	     41.54395565	     53.32808215	      0.00000000	      5.00000014	     71.09718394	     -8.85711340	      6.80538429	     39.86714056	     58.82649960	      0.00000000	      5.00000014
     12.04200000	    -51.96341463	      3.81527978	      5.40486705	     -0.34264489	      0.98076169	      0.03319080	     92.80427853	    -11.08191729	     -1.59664456	     46.40773358	      0.80996775	     -9.35876931	     -1.21237077	      0.00000000	    121.36652472	     -7.21040143	     -2.71279140	    116.41027792	      2.03174263	      4.53337970	      1.89033320	      0.00000000	     -0.08878650	     -0.83289328	     -0.76188418	     -0.16488541	     -1.10774806	     -0.80950194	     -0.14586734	     -2.02509671	     -0.80950194	     -0.10147409	     -2.02509671	     -0.66664865	     -0.08244714	     -1.69843597	     -0.61903089	     -0.05073261	     -1.29015169	     -0.57141313	     -0.63419310	     -9.42185533	     -4.23737122	      0.00000000	      0.00000000	      0.00000000	      0.00000000	      0.00000000	     64.64411814	     -7.84319596	     -6.21797259	     41.99511396	     53.06353314	      0.00000000	      5.00000014	     71.77232366	     -9.40733927	      9.39606358	     39.64013182	     59.20469420	      0.00000000	      5.00000014
